<?xml version="1.0" encoding="UTF-8" standalone="no"?>
<!-- Created with Inkscape (http://www.inkscape.org/) -->
<svg id="svg2403" xmlns:rdf="http://www.w3.org/1999/02/22-rdf-syntax-ns#" xmlns="http://www.w3.org/2000/svg" xml:space="preserve" height="311.75" width="320.56" version="1.0" xmlns:cc="http://creativecommons.org/ns#" xmlns:xlink="http://www.w3.org/1999/xlink" xmlns:dc="http://purl.org/dc/elements/1.1/"><metadata id="metadata2408"><rdf:RDF><cc:Work rdf:about=""><dc:format>image/svg+xml</dc:format><dc:type rdf:resource="http://purl.org/dc/dcmitype/StillImage"/></cc:Work></rdf:RDF></metadata><defs id="defs2406"><clipPath id="clipPath2462" clipPathUnits="userSpaceOnUse"><path id="path2464" d="m0 0z"/></clipPath><clipPath id="clipPath2556" clipPathUnits="userSpaceOnUse"><path id="path2558" d="m0 0z"/></clipPath><clipPath id="clipPath8976" clipPathUnits="userSpaceOnUse"><path id="path8978" d="m0 0z"/></clipPath><radialGradient id="radialGradient10980" gradientUnits="userSpaceOnUse" cy="440.66" cx="-64.643" gradientTransform="matrix(3.1101 0 0 -3.1112 198.81 1487.9)" r="97.988"><stop id="stop11850" stop-color="#fff" offset="0"/><stop id="stop11852" stop-color="#94caff" offset="1"/></radialGradient><radialGradient id="radialGradient12103" gradientUnits="userSpaceOnUse" cy="807.87" cx="1009.6" gradientTransform="matrix(.33078 -1.6666 1.1545 .22916 -165.22 2298.8)" r="269.55"><stop id="stop12107" stop-color="#6a0000" offset="0"/><stop id="stop12109" stop-color="#569b0f" offset=".57333"/><stop id="stop12111" stop-color="#4ce72c" offset="1"/></radialGradient><filter id="filter13813" height="2.4914" width="1.4287" y="-.74570" x="-.21435"><feGaussianBlur id="feGaussianBlur13815" stdDeviation="44.120537"/></filter><radialGradient id="radialGradient4615" gradientUnits="userSpaceOnUse" cy="139.37" cx="99.958" gradientTransform="matrix(-.21405 1.3758 -1.2457 -.19403 303.11 18.169)" r="45.07"><stop id="stop4611" stop-opacity="0" offset="0"/><stop id="stop4623" stop-opacity=".023529" offset=".49270"/><stop id="stop4621" stop-opacity=".035294" offset=".57087"/><stop id="stop4619" stop-opacity=".066667" offset=".63646"/><stop id="stop4617" stop-opacity=".14894" offset=".69579"/><stop id="stop4625" stop-opacity=".21277" offset=".73030"/><stop id="stop4613" stop-opacity=".54610" offset="1"/></radialGradient></defs><g id="g2412" transform="matrix(1.25 0 0 -1.25 -880.58 497.68)"><path id="path12141" opacity=".25114" d="m1187 903a247 71 0 1 1 -494 0 247 71 0 1 1 494 0z" transform="matrix(.33020 0 0 -.19809 523.84 363.86)" filter="url(#filter13813)"/><g id="g2456" transform="matrix(.41782 0 0 .41782 516.24 153.02)"><g id="g2458"><g id="g2460" clip-path="url(#clipPath2462)"><text id="text2466" transform="matrix(1 0 0 -1 47.37 20.402)"><tspan id="tspan2468" font-size="7.92px" y="0" x="0 3.96 7.9200001 11.88 15.84 17.82 20.900881 24.86088 28.820881 30.80088 34.76088 38.720879 40.700878 44.660881 48.62088 50.822639 54.782639 58.742641 60.944401 64.904404" font-family="Times" fill="#ffffff">2008 Jun 12 04:45:24</tspan></text>
</g></g></g><g id="g2550" transform="matrix(.41782 0 0 .41782 516.24 153.02)"><g id="g2552"><g id="g2554" clip-path="url(#clipPath2556)"><text id="text2560" transform="matrix(1 0 0 -1 134.16 20.88)"><tspan id="tspan2562" font-size="6.96px" y="0" x="0 5.0251198 11.21256 15.85488 17.594879 19.91256 21.652559 27.84 30.930241 33.247921 35.1828 37.11768 40.597679 42.337681 48.907921 51.998161 53.933041 57.41304 60.503281 62.43816" font-family="Times" fill="#000000">OMC - Martin Weinelt</tspan></text>
</g></g></g><g id="g2786" transform="matrix(.41782 0 0 .41782 516.24 153.02)"><path id="path2788" d="m335.76 419.04h-0.48 0.48z" fill="#dcdcdc"/></g><g id="g2834" transform="matrix(.41782 0 0 .41782 516.24 153.02)"><path id="path2836" d="m356.4 435.84v0.24-0.24z" fill="#fff"/></g><g id="g2978" transform="matrix(.41782 0 0 .41782 516.24 153.02)"><path id="path2980" d="m341.28 473.52h0.24-0.24z" fill="#dcdcdc"/></g><g id="g3062" transform="matrix(.41782 0 0 .41782 516.24 153.02)"><path id="path3064" d="m335.52 485.52h-0.24 0.24z" fill="#dcdcdc"/></g><g id="g3706" transform="matrix(.41782 0 0 .41782 516.24 153.02)"><path id="path3708" d="m254.64 434.4h0.24-0.24z" fill="#dcdcdc"/></g><g id="g4618" transform="matrix(.41782 0 0 .41782 516.24 153.02)"><path id="path4620" d="m354.24 487.92h1.44-1.44z" fill="#dcdcdc"/></g><g id="g4762" transform="matrix(.41782 0 0 .41782 516.24 153.02)"><path id="path4764" d="m296.64 503.76h-1.92 4.08-2.16z" fill="#dcdcdc"/></g><g id="g4766" transform="matrix(.41782 0 0 .41782 516.24 153.02)"><path id="path4768" d="m295.68 502.32h2.4-2.4z" fill="#dcdcdc"/></g><g id="g4794" transform="matrix(.41782 0 0 .41782 516.24 153.02)"><path id="path4796" d="m296.64 503.76h-1.92 4.08-2.16z" fill="#dcdcdc"/></g><g id="g4798" transform="matrix(.41782 0 0 .41782 516.24 153.02)"><path id="path4800" d="m295.68 502.32h2.4-2.4z" fill="#dcdcdc"/></g><g id="g4918" transform="matrix(.41782 0 0 .41782 516.24 153.02)"><path id="path4920" d="m235.92 496.8h0.96-1.68 0.72z" fill="#dcdcdc"/></g><g id="g4982" transform="matrix(.41782 0 0 .41782 516.24 153.02)"><path id="path4984" d="m235.92 496.8h0.96-1.68 0.72z" fill="#dcdcdc"/></g><g id="g8318" transform="matrix(.41782 0 0 .41782 516.24 153.02)"><path id="path8320" d="m500.64 257.76v-0.96 0.96z" fill="#dcdcdc"/></g><g id="g8322" transform="matrix(.41782 0 0 .41782 516.24 153.02)"><path id="path8324" d="m500.4 310.56v-0.24 0.48-0.24z" fill="#dcdcdc"/></g><g id="g8370" transform="matrix(.41782 0 0 .41782 516.24 153.02)"><path id="path8372" d="m500.64 257.76v-0.96 0.96z" fill="#dcdcdc"/></g><g id="g8522" transform="matrix(.41782 0 0 .41782 516.24 153.02)"><path id="path8524" d="m75.599 256.32v-0.24 0.24z" fill="#dcdcdc"/></g><g id="g8970" transform="matrix(.41782 0 0 .41782 516.24 153.02)"><g id="g8972"><g id="g8974" clip-path="url(#clipPath8976)"><text id="text8980" transform="matrix(1 0 0 -1 408.32 40.076)"><tspan id="tspan8982" font-size="13.92px" y="0" x="0 6.96" font-family="Times" fill="#000000">km</tspan></text>
</g></g></g><g id="ce" transform="matrix(.45945 .14179 .14179 -.45945 780.05 383.75)"><path id="path10955" fill="url(#radialGradient10980)" d="m37.058 439.28c103.56 0 187.57-84.39 187.57-187.92 0-102.87-84.01-187.27-187.57-187.27-102.82 0.004-187.55 84.4-187.55 187.27 0 103.53 84.728 187.92 187.55 187.92z"/></g><g id="g2650" transform="matrix(.41782 0 0 .41782 712.6 153.02)"><path id="path2652" d="m946.25 360l-13.22 1.19-2.09 0.31h2.4l-7.22 1.81-3 0.28 1.82-0.28h-2.69l3.28-0.31 2.09-0.31 0.63-0.6-2.13 0.32 1.5-0.6-4.5 0.88h-0.59l0.31 0.31h-2.4l-0.91 0.31h2.09l-1.78 0.6v-0.32l-0.59 0.32h-0.63l-2.09 0.28 0.91-0.28-1.82 0.28h-0.59l-2.41 0.31h-1.78l-6.31 1.19-3 0.31-0.59 0.31-0.6 0.28h-0.31l0.31-0.28-9.31 1.19-1.19 0.59 1.28-0.21 0.22 0.21h-1.5-0.31l-2.09 0.32 2.68 0.28h-3l-1.78 0.31-0.31 0.31v-0.31l-2.41 0.59 0.63-0.28-1.81 0.6 0.9-0.6-6.59 1.5-1.22 0.6h-1.5l-1.5 0.28-0.59 0.31h-0.32l-1.5 0.59 1.22-0.59h-0.31l-2.69 0.91 0.91-0.6-3 0.88-0.31 0.31-0.6 0.31-1.81 0.6 2.09-0.91-4.18 1.19-0.91 0.31-1.19 0.59 0.28-0.28-1.18 0.28-1.13 0.38-1.87 0.84 1.18-0.62-2.68 1.22 0.59-0.32-1.19 0.32-1.81 0.59-0.28 0.31-1.22 0.28h0.31l-0.59 0.32-1.5 0.59 0.28-0.31h-0.28l-1.81 0.9-2.41 1.22h-0.59l-0.6 0.28-0.31 0.32-1.78 0.9h-0.63l-1.18 0.6-0.32 0.28-1.18 0.62-1.22 0.6h-0.6l-0.9 0.28-3 1.5-0.88 0.31-4.22 2.09-0.87 0.32-3 1.5-0.63 0.59-2.37 1.19-0.91 0.31-1.22 0.59-0.59 0.6-3 1.5-0.59 0.62-1.82 0.88-0.59 0.62-0.91 0.28-1.78 0.91-0.59 0.59-1.22 0.6-0.59 0.62-1.82 0.88-0.59 0.62-0.59 0.28-4.82 3.32-4.78 3-11.4 8.68-0.13 0.07-0.47 0.25-0.31 0.28-0.59 0.31-0.6 0.59-0.59 0.32-0.31 0.59-0.1 0.03-0.5 0.28h0.19l-1.09 0.88-3.91 3.31-0.91 0.59-0.59 0.32-1.19 1.18-0.9 0.6-2.41 2.4-0.91 0.6-4.18 4.22-0.91 0.59-0.91 0.91-0.28 0.28-1.43 1.47-0.07 0.03-1.22 1.22-0.03 0.06-1.12 1.09-0.03 0.03-1.19 1.22-1.16 1.16-0.06 0.03-0.28 0.31-0.63 0.6-0.28 0.59-3.31 3.31-0.28 0.28-0.31 0.6-0.6 0.62-0.06 0.03-0.53 0.25-0.31 0.6-0.94 0.93-0.03 0.04-0.22 0.25-0.31 0.59-1.5 1.5-0.32 0.59-1.18 1.22-0.32 0.6-1.18 1.18-0.32 0.6-1.18 1.22-0.32 0.59-1.18 1.19-0.32 0.62-0.59 0.6-0.28 0.59-0.63 0.59-0.28 0.6h-0.31l-0.28 0.62-0.63 0.6-0.28 0.59-0.59 0.59-0.63 1.22-0.59 0.6-0.28 0.59-0.63 0.59-0.28 0.6-0.59 0.62-0.63 1.19-0.59 0.59-0.34 0.69-0.25 0.53-0.1 0.1-2.31 4.09 0.91-0.91-1.19 1.5-0.63 1.22-0.28 0.28-0.9 1.82 0.31-0.32-1.22 2.41-0.91 1.19-0.59 1.22-0.28 0.9-0.31 0.28-0.6 1.22-0.31 0.6-3.28 5.68-2.13 2.72v0.6l-0.87 0.9-1.5 2.38-0.31 0.9-2.41 3.91-1.19 3-0.9 1.19-0.32 1.22-0.28 0.59 3.28-4.81 7.82-12.6 3.31-4.5 1.78-0.9h0.91l1.81-0.28 1.5 2.4 0.59-1.81 0.6 0.31 0.9-1.81-0.9 2.41h0.59l0.91-1.22-0.6 0.31 0.91-0.91v-1.5l0.87 0.32-0.87 1.5 1.31-1.53 1.06-1.47 1.5-3-0.59 1.78 0.38-0.63 0.84-0.56 0.34-0.53 0.53-0.38 0.32-0.59 1.5-3 0.9-0.59-2.4 3.59 2.4-2.41 1.5-1.5 0.6 0.91-2.1 0.59-2.72 4.22-2.37 1.78 3.59-1.78 3.91-4.81-2.41 3.59 2.1-0.59 2.4-2.41h1.5l0.6 3.6 1.18-1.19-0.87 1.5 0.28 1.81 1.5-1.22-1.19 0.32 2.1-3.32 4.5-2.09v0.91l1.18-0.91-0.59 1.5 2.41-1.19-1.19 0.88 0.87 0.31-0.59 1.19 1.5 0.9 1.5-1.78-0.59 2.1 3.59 1.78-2.09 0.31 0.59 3-1.5-0.31 0.91-1.78-3-0.91-2.41 2.09-0.91 2.41 3.91-1.19-0.28 1.78 0.87-0.9 2.72 3.31 0.6 0.31 1.5-3.62-1.19-2.1 1.5-4.5 2.69-2.09-0.32-1.19 2.72-0.9-0.9-1.22 0.9-1.19 0.28-1.81 0.32 2.72 1.81 0.59 2.09-2.41v-3l-2.09-2.09-6.63-0.91 3.32-0.28 1.81-1.22 3.87 2.1 2.41-0.6 1.22-0.28 2.09 11.38h0.28l4.22-0.6 1.5 2.41 3.28 0.31 0.91-2.12 0.59 1.22-0.28-2.1 0.6 1.5 0.59-1.5 2.09-0.9 1.22-2.1-1.81-0.62 2.09-0.88 0.32-2.4-3.6-1.22-1.5-0.6 1.78 0.6 0.32-0.28 0.59-0.32 0.31-0.28 0.6-0.31 0.31-0.59 0.59-0.32 0.28-0.28 0.63-0.31 0.28-0.31 0.59-0.28 0.32-0.32 0.59-0.28 0.31-0.31 0.6-0.31-1.5-0.28 3.31-1.5h-0.91l0.91-0.6v-2.12h1.19v-0.88l0.31 0.28 0.28-1.18 0.59 0.59 0.63-1.81-0.31 1.5 2.09-0.6 0.91-2.68 0.9 0.59 0.91-1.81 0.87-0.28-0.87-0.91h2.09l-0.9-0.91h1.81l1.5-1.18-0.63-1.22 0.91 0.62 3-3.62h1.22l0.28-0.88-2.69 0.28-1.5 1.5-0.59-0.9-0.63 1.22-1.18-0.6-2.1 1.19 2.1-1.81h-3.32l2.13-1.78-2.41 0.28 3.28-1.19-0.28-2.69h1.19l-0.91 0.88 2.13-0.6v-0.59l2.69-1.19 0.31-1.81v1.81l4.19-1.81h-1.19l1.5-3 1.78-0.59v-0.91l3.91-3.31-1.5-0.6 2.68-4.5-1.18-0.59-3 2.09-3 0.32v0.59l-3.32 1.81-5.09 0.28-3 3.32-6.59 3.59-3.91 0.59-1.5-2.4-2.09 2.12-7.5 4.78h-1.5l-2.41 1.5 2.09-1.78-1.78 0.28 0.28-0.59 0.91-1.19 1.5-0.9 5.41-5.1 8.4-3.9 2.1-4.5 12.31-11.1 0.28-2.4h1.22l6-2.41 1.19-1.5-1.5 0.31 3.31-1.5 5.09-1.22 3 0.91 1.19-0.59 0.91 1.5 1.5-0.91-0.91 1.19 0.91 0.62 2.68-1.5v-0.9h0.63l2.09-1.82 1.19-0.28-3.91 3-1.5 1.19 2.13 0.31-1.22 2.1 3.31 0.59 5.69-5.09-0.28 1.18-4.5 3.32 2.69 0.9 2.09-1.5-3 3.6 3.59-2.1-0.59 1.19-2.41 1.19 3.63 1.22 4.78-2.41 0.31 1.19 1.5-0.88 1.19 0.28 2.09-2.09 0.32 0.59 1.81-2.68-5.13 1.5 0.63-0.91h-5.72l-0.28-0.91 8.09-1.78 1.78-1.22-3.87-0.28 5.69-1.81-0.32 1.19 2.41-2.38h1.19 0.03l0.87 0.28-0.9 0.6 9.31-2.69-3.31-1.81-1.19 0.9-2.41-0.28h-0.59l-3.91 2.69 0.32-0.91h-2.1l0.6 0.6-2.1 0.31-0.59-1.5-3.63 0.31 2.13-1.22 3 0.32-0.63-0.6 0.91 0.28 1.5-0.9 0.59-1.19-2.37 0.59-0.31 0.6h-1.82l3.32-1.19-1.19-0.31 0.87-0.88 2.13-2.12 2.69-0.88 1.81-1.5 3.87-0.9 0.32-2.1-1.5 0.88-0.6 1.5-0.31-1.78-3.28 0.59h-1.22l1.5-0.59-3 0.59 4.22-1.19v0.6l4.78-1.82 0.91-1.5 4.5-2.4h1.5l-1.22 1.22 3-0.6 2.4-1.5 5.41-1.5 3.31-0.9 2.1-1.82 1.81 0.6 0.28-0.28-0.59-0.91 3.59-0.31h0.31l1.19-0.6 2.41-1.78 0.31 0.88h0.28l0.31-0.28h0.28l2.13-1.82 1.5-0.59 1.5 0.31 1.19-0.9-2.1-0.32 8.69-0.9 4.81-0.28h0.88 0.03 0.28l12.59-1.5 2.1 0.28-0.28 0.31 3-0.31 1.5 0.62 1.18-0.62-0.31 0.62h1.22l2.09-0.62 2.69-0.28 0.31-0.6 0.32 0.28 0.28 0.32 2.72-0.6 0.87-0.31h0.03l2.69-1.19h3.91l1.5-0.62-4.5-0.88-0.6-0.62h-0.03l-3.87-0.28-0.32-0.6h0.26l-0.85-0.31h5.09l0.91 0.59 7.5-0.28-3.59-0.62h1.78l-1.19-0.6-6.28-0.59h-0.03v0.31l-0.6-0.31-2.09 0.31h-2v-0.03l1.41-0.28-1.5-0.59 0.87-0.32h0.03l2.41 0.32 2.37-0.6 2.13 0.28 4.47-0.9-1.19-0.28h-0.91l-3.87-0.32h2.69l-0.6-0.59h-4.81l-1.5-0.31 1.5-0.28-4.19 0.28-0.9-0.28h-2.69l-0.91 0.28-0.9-0.28-3.32 0.28 1.82-0.28-0.6-0.32 6.6-0.28v-0.31h-1.19zm4.13 6.31l1.56 0.6-1.5-0.6h-0.06zm-218.82 120.57l-2.22 3.03 2.69-3.6-0.47 0.57zm-3.22-13.97l0.35-0.63-0.47 0.75 0.12-0.12zm-0.12 0.12l-0.38 0.38-0.59 1.18 0.97-1.56zm128.09-97.06l0.81-0.38-1.18 0.47-0.13 0.06 0.5-0.15zm91.41-13.28l0.31 0.31-0.59 0.31v-0.31l0.28-0.31zm24.31 3.31l1.81 0.59h-2.4l-0.6 0.32-1.81-0.32 0.31 0.32-1.5-0.32-2.09 0.32 2.97 1.18h0.03l3.28 0.6 2.09 0.31-0.28-1.19 0.6 2.1 6 2.68 4.5 2.41 4.5 0.91 2.09 1.18h0.59l0.32 0.32h1.81l-0.31-1.22 1.81 0.31 2.09 1.5-0.59 0.59 2.09 0.32 5.46 2.68 3 0.32-1 1.18h-0.3l-0.9 1.22 2.7 2.1 4.5 2.09 0.6 3-1.8-0.91v1.5l1.2 0.6 4.2 0.9-2.7 0.32 1.2-0.6-2.7-0.31 2.7 4.19 0.9-0.28 1.8 0.9h0.3 0.3 2.7 0.3l1 1.19 2 0.31-0.9 1.5 2.1 1.78-1.5 0.6 6.3 1.81-4.5 1.81-1.2-0.9-0.9 0.59-0.9-0.91-2.1 0.6 0.9 1.81-1.8 1.19 4.8 1.81 0.3 2.09-1.4 1-1-0.4-0.1 1.19-4.7 3.31-2.1-1.78-2.7 0.28 1.2-0.6-1.2-0.59-4.2 1.19 1.2 3-1.8-0.88-1.2 1.78-1.2-1.5-1.8 0.91 2.7 2.41 2.7 0.9-0.3 0.88-0.3 0.62h2.4l-1.2 0.28 1.2 2.72-1.2-0.62-0.9 1.81 0.9 0.59 0.4-0.9 0.5 6 2.1 1.22-1.5 0.28 4.9 1.22-2.8 5.09 4.5 2.69 4.5-0.25-1.2 1.47-2.4 0.28-2.4 0.31v1.19l1.8 0.62-1.8 1.19 5.8 0.59-3 1.22-7.3-3.62 2.7 1.81 0.9 3.31 4.2 1.5 1.8 1.78 2.7 2.72 1.8-2.12 3-0.28 2.7 1.18 1.2 2.1 2.4-0.28-2.7 0.59-4.8-3-1.2 2.09 3.9 3 2.4 6.91-5.1 1.19 2.1-3-3.3-6.28-2.7-0.6-3.6-3.31-3-2.41-3-0.9-3.6-4.19-1.8 0.31-2.1 1.19 3.6 4.5v2.69l3.6 3.31 1.5 1.19 1.5-0.88 3.3 1.19 1.5 3.31-6.3-1.22 0.9-0.28-8.7 0.88v1.5l3.3 1.81-1.2 1.19v0.03l0.6 1.19-2.7-1.5-0.9 2.4-2.6 1.19v1.81l-2.5 0.6-0.9-2.41 0.9-0.91-0.9 0.32-0.6 3.31-0.86-0.91-3.91 4.19 1.5 0.91-2.09 0.59 0.9 2.72-2.4 1.19-2.69-1.82 2.09-2.37-0.9-0.91-6.32-0.9 2.41 1.18 3.91 9-4.19-1.5-1.81 2.72-0.91 1.78 0.31 0.63 0.28 0.87 0.32 0.63 1.5 2.09h-0.91l-3.28-0.31-0.63 0.91 0.63-1.22-3.31-0.6-0.32 1.82 3.63 1.18-0.63 2.41-6-2.09-2.09-3.32 0.59-2.09-3.87-1.19 1.19-0.9-3.91-2.41 14.09 2.09 1.22-1.78-0.31-0.62-0.28-0.88-0.31-0.62-1.19-3.6-0.91-0.9-8.72-2.69-2.68 0.31-0.6 1.5 0.28-2.12-2.09 0.31-0.59-1.19h1.81l-1.81-0.9-1.19 1.78-1.81-1.19-0.91 1.19-1.5-1.19-0.59-0.91 2.68 0.32 1.22-1.5-3.59-1.5-1.5 2.09 0.87-2.41-1.5-0.28-0.59 2.38-0.91 0.62v-2.4l-1.78 3.59 0.6-3.31-1.82-0.28-1.5 3.9v0.28l-0.28-0.28h-0.59l-0.63 0.28h-1.18l0.59 0.91-1.5-0.91-2.09 2.72h-0.32l0.32-0.62v-1.19l-0.6 1.19v-1.5l-1.22 0.9 0.91 1.5-2.09-0.9-0.91 3-2.09 0.62 2.4 0.28-2.72 0.32v2.09l-0.59-1.81-1.5 0.9 1.22 0.6h-1.81l1.5 1.22-2.69 1.18 1.78 0.6-3.59 0.62 0.9 0.6-2.09 2.4 2.09-0.31-3 0.59 0.91 1.22-0.91-0.62-1.5 3 1.78-0.28-3.59 1.5 1.81-0.32-1.81 0.91 0.91 1.19-1.5 0.31-0.32-1.19-3.59 3.6 1.81 0.59 2.41-2.09-1.22 2.68-2.41 0.32-0.28-1.22-2.4 0.62-0.32 2.38-1.5-0.88 1.22 1.5-3-1.5 2.1 1.5-3.91-0.31 1.5 2.41-0.91-1.22-0.59 0.9-1.19-0.59 0.6 0.91-2.41-1.22v1.5l-0.91 1.22 1.82 0.9-2.1-0.31 1.5 0.59-1.22 0.91h-0.59l1.22 0.91-1.5 0.28 0.59 1.22 1.19-0.6-1.78 1.19 0.28 1.19 1.22-1.19-1.22 2.09 4.22-2.09-5.13 3.59 0.63 1.22 2.37-0.9-2.09 1.78 1.81 0.31-0.9 0.91-1.5-1.22-0.32 2.12 2.72 3 3-0.31 3.91-3.91 2.09 0.6 1.19-3.6 0.31 6.6h1.19l-0.59 2.12 1.18-1.81-0.87 2.69 2.37 5.12-1.5 1.19 0.63 4.19 3.59 0.31 1.78-3.59 3 0.59 2.41-6-0.28-4.5 1.19 0.31-1.82-0.9 3.32-0.6 0.31-1.81 0.59 1.81 2.1-2.12-1.5-0.6 2.4-1.18-2.4-3.91-2.1-0.31 1.5-9.88 1.19 1.19 3.91-3.31 1.5-1.19 1.81-2.69-0.91-3.62 1.19 0.62-0.28-2.4 1.5 0.9 0.28-1.5h3.59l2.13 3.28-8.41 9.6 1.5 5.72-0.59 3.59 2.69 1.81 1.18-0.9-0.28 2.4 12.91-4.81 0.28 1.81 4.22 1.19-5.13 1.19-0.28 1.81-5.4-0.91-5.1 2.41 0.91 3.59h2.09l-0.31 4.82-1.78 1.18-2.72-3.28-2.41 0.88-1.78 4.5 0.47 3.84-1.37 2.78-1.5 0.6v1.18h1.18l-1.18 0.6-1.82 1.5 1.5-2.1-3 1.5-2.37-2.4-9 3.31-0.31 1.81-4.19-3.9-6 1.78 0.87-2.1-2.68 0.32-1.5-2.72 0.9-3.6 4.19-3-2.09-1.5 2.09-4.18-5.69 2.09-2.72 10.19 1.22-0.28 0.6 1.78-1.19 0.62 3 3.88-3-2.1-0.91 2.41-1.22-1.81-2.37 0.31 0.59 1.81-4.22-1.5-1.78 1.19 0.91 2.41-1.81 1.18-0.91-3.28-3 4.19 1.5 1.5h-3.59l2.09 1.19-7.78 0.9-0.63 3-1.18 0.6-4.82 2.4-4.78-3v5.1l-3.9-0.28-0.6-2.1-5.4 0.6 1.5 1.5-1.5-0.6v2.38l5.4 3 0.6 4.81 1.81 1.19-1.22 2.72 0.31 0.9-4.22 9.28-16.78-4.78-1.5-2.12-6 1.81 1.19 3.91-3.91 9.59-4.18 5.41 1.81-0.32-1.5 2.1 1.78 0.62h-0.59l-2.41 6 7.22 0.88 2.69 7.22 5.09-2.1 7.81 1.78 3.28-3 2.72 0.32 1.5-3.32 1.78-0.9 1.19-0.28-0.59-1.19v-0.03l-0.88-0.88 0.91-3 0.87-0.62 4.5-4.5 8.13-2.38v-4.5l1.78-1.81 2.72-0.91 6.59 3.6 9.6-5.38 4.5 2.69 2.09 7.5 15.31 12.31 1.78 5.38-2.37 3.9 1.5 0.6 2.09-4.19 2.41-0.91-2.41-3.59 1.5-3 3.28 0.59 1.82 2.41 0.59-1.5-9-6.59 0.91-2.1-4.82-0.62-3.28-7.5-3.9-3.28-0.32-5.41 4.5-1.5 0.91 4.81 2.41-2.4 4.18 8.4 3 0.88 3 2.72-2.37-0.91 6 2.41 2.69 3.28-1.19 6.62 2.69 3.28 2.68 3.6 1.5-0.6-1.5 1.22 1.5 2.1 7.82 0.59-1.19 1.19-5.72-1.19-0.91 1.81 2.13 4.78 1.78-0.9 1.22 3 0.59-2.1 2.1 1.82-1.82-5.41 3 0.59-2.09-2.09 2.09-0.91 1.82 1.82v-2.41l-5.69-3 1.78-0.91-0.28-1.5 1.5 0.6-3-6 1.19-0.6 3.9 3-0.9-1.78 2.4 0.88-2.72-2.69 5.13-1.5 6 1.19-2.13 3 4.5-4.5 5.13-0.6-5.13-6.28-1.18 0.28 3.59-5.68 0.31-6.91 0.6 1.5 2.09-1.19-0.59-4.5 0.47 0.94-0.16 0.25 0.19-0.22 0.09 0.22 0.38-0.72 1.71-1.97 0.63-2.12 3.59-2.1 1.78 1.82-3.28-0.32 1.78 0.6-0.59 0.9 6-0.28 0.31 1.5-3.31 2.38 2.09-0.28 1.22 3.9 2.1 0.6 7.86-6-3.68 0.9h-1.78l-2.09-2.4 1.78-3-0.28 2.09 2.37-3 9.68-4.81-1.3 3.31-2.7 0.31 2.1 1.5-1.5 4.5-2.6 1.5 12.5 5.69 5.7 2.41 2.1 3.59-0.9 2.41-3.6 3-0.3 0.28-5.7 1.22-6.8-0.32-5.46-3.28-5.72 1.19-6.59 5.09-7.19 0.32 0.6 1.78 2.4 0.31-3.31 0.59v1.5l-7.78 0.32-2.13 2.4-0.28 2.1 3.28-0.6-0.59 4.5 1.81 0.6-1.81 0.9-0.91-1.81-0.59 2.09 3.91 1.22-0.91 1.5 2.41 1.78-1.19 1.22 3.87-0.62-3.28 2.12 3.91-1.22 4.78 3 2.72-0.59 0.59-3.31h2.1l6.31 3 4.19-1.5 2.06-3 2.8 0.62 2.6-1.81-0.6 6 1.8 4.81-4.5 15.88-8.07 2.72-1.19-2.41-3.31 0.31-7.5 4.5-8.69-2.4h-6.9l-1.19-1.82-6.63-0.59-0.87-2.41-5.41-1.18-6.59 3.59v6.31h-0.31l-4.19 2.69-4.5-3.31-8.41-2.38-2.09-4.81-6.91-2.69h-4.22l-7.78-5.4-0.59-1.82 4.78-4.5-2.09-4.5 2.4-4.18-2.4 1.5-2.1-3.32-7.22 1.5-5.37-1.78-4.22 1.5-5.09-2.12h-10.5l-4.5 2.4-3.32-0.28-4.18 2.1-3.32-0.91v-1.5l-6.28-0.59-1.81-3.91h-1.78l-5.13 7.19-10.5 3.9-3.28 4.5-0.9 6.32-0.32 0.28-2.68 2.4-5.69 3-5.41-0.28-4.22 4.78-3.28 0.91-3.31 6-4.5 2.41 0.91-0.32-6.91 7.5-1.19 3.91 0.91-0.91 1.5 5.1-2.13 3 0.63 7.81-3.63 8.09-4.18 2.41 3 5.41-0.32 2.09 3.63 0.91h-3l-1.22-1.5-0.91 3.59 2.13 0.91-2.13-0.32 2.72 1.5-1.5 0.6 1.78 1.22-0.28 0.9 3.91 0.6h-2.41l1.78 1.18-2.09 0.6 0.91 1.81 1.18-0.31-0.59 0.9h1.5l0.59 3.91 1.5 1.81 1.82 1.5-0.91 0.88 1.5 1.22 0.31 3.59 1.19 0.31h-1.78l3 3.88-0.31 1.5 5.09 4.22 9.59 11.4 5.13 3.6 5.69-0.91 9 1.19 8.68 4.5 9-1.5 6-1.19 11.13 0.31-2.13 0.6 4.82 0.9 2.68 2.69 1.5-0.59-1.5 0.9 2.13 0.88-1.5-0.28 0.87 0.9 1.22-0.31-1.5 1.19 3 3.9 3.28 0.32v-0.91l0.63 0.91-0.31-1.22 0.9 1.22 0.28-1.22 1.22 1.22 4.5 0.28-0.31-1.78 1.5 2.09 1.22-0.91 1.78 3.32 2.41-0.32 0.31 1.22h-1.22l2.09 3-3 7.19 1.5 0.59v2.41l-1.78-0.59 3.28 1.78-2.37 0.31-0.63-1.5-1.18 4.19-1.82-0.6 4.22 6.91 9.91 8.41 2.09 4.78 2.41 1.22-1.81 0.28 5.4 8.12-1.81 2.1 1.81 3.28 2.41 3.31-0.91 3.91-5.09 3.28-3 6.9 0.59 6.32 12.6 12.59 2.68 9 9.91 8.09 4.22 3 0.59 1.5-1.81 0.6 2.09 2.4 1.5-0.28 4.82 1.19 9.9-1.5h9l8.69-1.5 12.59-5.09 3.91-2.72 1.81-1.19 5.1-2.41 3.36-5.68-0.7 0.59-1.16-0.59 13.46-6 0.9-4.82-3-3.59 0.3-2.41 0.9 0.32 6.6-3.6 2.7-3.31 13.5-6.59 0.9-0.6 4.2-5.12-1.2-5.38 0.9-0.9-0.6-4.22 1.5-2.38-2.7-0.62-1.2-0.6-1.5-5.4 0.9-1.78-1.2 0.28 1.8-3-3.3-2.69 2.1-5.41 3.6-6.28 0.9-1.5 3.6-2.72-0.9-0.9 2.4-0.6 9.9-12.28 10.2-9.62 8.2-10.5 10.1-24v-2.38-1.5l1.9-1.22-1.6 0.6 0.6-6.28h-2l-5.2 4.78-8.4 3.31-3.6 3h-2.7l-5.1 3.59-6.3-3.59-2.7 0.91 3.3-2.72-0.3-2.1-9.9-7.18-4.5-0.32-0.9-1.5-0.6-0.59-0.6 1.81-6.3-12-5.1-2.72-2.4-10.18 0.9 0.59-2.4-4.19-5.4-3.31-1.2-4.19 1.2-0.31-3-2.09-8.1-14.41-4.47-4.81-0.91-4.5 3.68 6 4.4 3.31 2.1-8.69-0.9 6.88 2.7-0.28 9.7 11.68 1.4 3.6 4.6 2.12 3.5 5.69 0.9 5.69 3.9 2.4 3.7 2.41 9.5 11.41 0.3 6.59 4.8 10.19 6.6-2.1 2.1-3.28 12-6.9 2.4-3.32 10.5-8.09 0.6-3.91 9-6.28 0.9-3.9 3.3-2.1 1-4.22 3.2-2.68-1.2-5.41 1-2.09 1.1 0.28 2.4-9.88-4.8-3.9-6 0.59-2.4-1.5-2.7-4.5v-3.59l-6 13.18-5.4 1.82-1.5 2.09-3.3-0.91-0.6-7.5-2.1 0.6 0.3 5.72-3.9-4.5-0.3-3.32-5.7-2.68-4.8-6.91-1.2 0.31 1.5-1.22-1.2-2.09h-0.3l3.3-0.91v-1.78l2.4 0.88 1.8-1.19 0.6 0.59 6.6 7.82h4.2l5.4 2.4 4.2-0.62 5.4-5.69 4 5.09 9.5-2.09 6-1.5 13.5-10.81 1.8 3 1.8-0.88 1.8 3.28 2.4-1.78 0.6 1.78 0.9-2.4-0.6 2.12 3.3 1.5 3.3-3-0.3 2.38-3 3.31 7.5 3 2.7-4.5-0.9-5.09 1.5-1.22-0.6 2.12 0.6 1.19 0.9-0.91-0.3 2.41 1.6 1.5 0.5 4.5 6.6 13.81 10.9 15 1.7 3.6 1.5 3.59 3 1.19 1.2-2.38v-3l2.1-3.31h-0.9l0.3-2.66v-0.03h0.1v-1.5l1.4-1.5-1.4-5.12v-4.5-3.6l-2.5-6.28-0.3-3 1.5-1.81v-3l2.1-3.59-0.6-1.82 2.1-9.59 0.3-6.31 1.5-5.38v-4.81l-1.1-2.09 0.8-3.32-0.3-2.68 1.2 2.09v-3l1.3 0.91-0.7-1.82 0.9 0.91-0.2-2.09 0.8 0.28-0.8-2.38 1.4 1.5-0.9-3.9 1.2 2.09v-1.19l-1.2-1.81 1.2-2.09 6 6.9-0.3-2.4 0.6 2.09 1.2-1.19 1.2 1.5-0.6 1.5 1.5 0.6-0.6-2.41 3 5.69 1.8 7.22v-2.1l0.3 2.1v-1.5l0.9 0.59-0.3-2.09 0.9 0.59-0.6-2.41 0.6-2.4-0.9-0.88 0.9 0.28v-2.4l-0.9-2.38 1.8 2.38 0.3-1.19 2.1 6.31 1.8 4.19-0.3-1.81 1.9 3 0.5 4.22 0.6-0.32 0.3 5.1 0.9 2.4-0.3-1.78 0.3 1.5 0.9 7.78 0.3-1.5 2.1 2.72 0.3 0.28 1.2 7.5 1.2 3.6h1.5l0.3-2.69-0.6-3.31-0.6-6.6-0.3-2.09-1.8-1.5-0.9 2.09-1.5-5.09-0.6-1.81-0.3 2.12-0.6-2.93 0.1-0.07-0.4-1.22-0.9-9-0.3-0.59v-0.59l-0.3-0.6-0.9-2.72 0.6-3.28 0.9 3.6 0.6-2.72 1.2-0.28 1.5 3.59-0.3-2.41 0.6 2.41v-1.5l1.2-0.59 0.9 5.4 0.3-1.22-0.3-4.78-0.6-1.5h0.6l-0.6-1.22v-0.28h0.3v-0.31l-0.3-0.31 0.3-0.6h-0.3v-0.9l-0.3-0.88 0.3-0.62-0.6-8.38-1.2-5.4v-0.91l-3-8.09-1.2-1.82-1.2 0.6-3.3-3.6-1.5-4.18-0.3-3.32-0.9-1.5 0.4-0.59-0.7-0.59v-1.82l-0.6-3v-2.09l-0.6-1.19h0.9l-0.6-2.4 0.3 0.28 1.3 2.72 0.8 1.78v-0.88l-1.8-4.5 0.3 0.6-0.6-4.22-0.6-1.19v-1.19l-0.3-1.22v-0.9l-1.2-2.38 0.9 1.19-0.5-1.5h0.2l-1.8-2.69 1.6 0.28-0.7-0.59-0.6-2.41 0.3 0.6-0.9-2.1h0.6l-0.9-3.28-0.8-1.5h-0.4l-0.6-2.72-0.6-1.18h0.3l-1.5-3h-0.2l-0.7-2.41-0.6-0.91-0.3-0.87-0.6-0.91v-0.9l-0.8-1.5h0.2l-1.5-2.1-0.9-1.81-0.6-0.59v-0.6-0.31l-3.3-5.69h-0.3l-1.2-3-0.6-0.62-0.9-1.5h-0.3l-0.6-1.5-0.6-1.19 0.6 1.5-1.5-2.69v0.6-0.6l-0.3 0.6 1.2 3-3.3-6.32h-1.2l-0.6-2.4h-1.2l-3.9-3.6-0.2 0.32v0.03 0.87l-1-0.9-2.4-3.91-0.9-1.19-0.6-0.31-0.3-1.19-1.2-1.5-2.1-3.62v-0.88l-1.8-1.81 0.3 3.31 1.5 2.38 0.1 0.06 1.4 2.66-2.7-2.1v1.78l-2.1-1.78-0.9-3-3-4.5-3-3.9-1.5-2.41 1.5 0.59 3.9 4.82-0.6-1.5 2.7 3.59-5.3-8.41-1.3-3.28 2.7 3 0.3-0.62 0.9 1.5 1.5 1.81-0.6-1.19 0.9 1.19-0.9-1.81-0.3-1.19 2.4 1.81h-0.3l1.2 1.78 0.6 0.32-0.9-0.91 1.5 1.19-0.6-0.88 3.6 4.19 0.9 0.59 0.3 0.91h0.6l-2.1-2.69 0.6 0.6-1.2-1.5 0.3 0.28-0.9-1.19-0.3-0.59-1.2-1.82-0.3-0.59-3-3.59-2.7-2.1-3-1.81-0.6 0.59-1.5-1.5-5.6-6.9-2.8-2.1-2.7-3-1.2-0.9-0.3-0.6-3-2.68 0.3-1.22-5.3-5.38-12.7-10.22-9.9-6.9v-0.03l-1.8-1.16-3.3-1.5-2.4-0.91-6-3.59-2.1 0.31-0.3-0.62-1.2-0.88-0.6 1.19-0.3 0.31 1.6 1.5 1.1 0.28 3 2.41-3-1.5 3 2.09-3-1.18 1.5 1.78-0.6 0.31-8.7-6-6.3-3.31-8.7-4.5-5.1-3.88 0.3-0.31-1.5-0.59-3-2.72-2.4-0.6-3-3 2.4 1.5 0.6-0.28-7.5-4.22-0.6 0.32 1.5 0.9-1.2-0.31-9-2.69-6.6-2.72-0.6-0.28 1.8 0.28h1.6l-1-0.59 1.5 0.31-6.5-1.81-1.9-0.59h-2.1l-2.7-0.91-0.6-0.59 2.4 0.9h4.2l4.5 1.5 6.9 1.78 6 1.82 3.3 1.5 4.8 1.5 4.8 1.18 9 1.5-7.8-3.28-1.5-0.31-3.6-1.81h-0.9l-0.3-0.28h-0.5-0.7v-0.32l-6-2.4-3.3-0.28-2.7-1.22-1.2 0.31-2.4-0.59 2.4 1.18-8.4-1.78-1.7-0.62v-0.28l-4.6-0.91 1.6-0.31-2.8-0.28-4.8-1.82-0.9-0.59-1.5-0.31-8.4-1.5-8.65-1.5-3.63-0.88h-1.5v1.5h0.32l0.59 0.6 3 0.59h-0.59l2.09 0.59-8.41-2.09h-1.18-2.1l-0.9 0.91-1.82-0.32 1.22-0.9-3.59-0.6h-0.03l-1.19-0.9-3-0.88h-0.91v-0.31h-2.09zm-88.19 11.69h1.19l-5.41 3.62-0.28 0.28-1.5 0.6 0.6-0.88h-0.32l-0.28-0.31-2.12 1.19-0.28 0.9-2.72-0.59 3-1.5h-1.5l0.31-0.31 0.91-0.88 0.9 0.6 0.91-1.22 2.69-0.88-0.6 1.19 1.5-0.59-2.09 1.18 3.28-1.18 1.81-1.22zm16.78 3.9l-1.18 0.6h-4.5l-1.82 1.81 0.91 0.59v0.32l-0.31 3.59 4.22-0.59 0.87-0.91 1.5-0.31 2.41-0.28 2.72-1.82h-2.72l-2.1-3zm109.18 0l1 0.6-1-0.28v-0.32zm5.7 2.29l3 0.43 3.3 1.78-3.3-1.5h-0.9l-2.1-0.71zm-133.47 1.03l-4.81 2.09h-2.1l-3.9 3.31 0.31 2.1-3.59 0.9-2.72 2.69 2.4-0.31-0.9-0.6 2.72-0.28-1.5 0.6 0.59 0.9-1.5 0.6h1.19 0.59l6.31-2.72h7.19l3-0.6 0.63-1.18-6-0.32 6.87-0.9 0.63-0.28-2.72 0.28 1.5-0.6-0.91-0.28 1.22-0.62 0.59 0.62 2.41-0.62 0.28-1.5 2.41 0.62 1.5-3-1.5-0.9-1.78 0.9-0.32-0.62-3 2.12 2.1-2.4h-2.1l-3.9 2.68-3.91 1.5 5.72-4.18h-0.31-2.69zm131.97 5.4l5.8 1.5h-0.4l-5.4-1.5zm-14.38 1.78l1.78 3 1.8-0.9-0.6-1.19-2.98-0.91zm2.98 3.32v2.68l2.7 0.32-0.6 0.28-0.9 0.9 3.6 0.91 2.4-0.91-1.2-1.18-2.7-2.1-2.4 0.88 2.1-0.88-3-0.9zm9 0.28l-0.9 1.22 3.3 1.18h0.3l-1.5-2.09-1.2-0.31zm-131.66 0.31l-6 1.81-1.82 0.6-0.59 0.59h0.91l-0.32 0.91 3.6 0.59 2.4-1.5 1.82 1.19 2.37-2.1h-2.37-0.32l-0.59-0.28h-0.59l2.68-1.5-1.18-0.31zm-26.1 0.59l-1.5 1.5-1.22 1.5v-1.18h0.32l2.4-1.82zm-6 1.22l-0.59 0.88-2.41 3v-1.5l2.1-1.5 0.9-0.88zm-8.72 1.5h1.22l-1.5 0.28-0.28 0.1 0.56-0.38zm-9 1.78h0.91 1.5l-0.28 0.91-1.22-0.59-2.41 0.59 1.22-0.59 0.28-0.32zm63 0l-3.59 0.6-0.59 1.22-6.32 0.59-3 1.5 1.19 0.91-2.37 0.59-0.91 3h1.5l-2.41 1.5 0.91 0.91h0.91l0.28-0.32 0.9 0.32 0.32-0.32h1.18l1.5-1.18-0.59-3.32 2.09-1.5h-0.9l2.72-0.59-0.32-0.91 0.91 0.6 1.19-0.88-0.91 1.5 1.81-1.22 0.6 0.32v-1.5h2.09l1.81-1.82zm-21.31 0.32l0.91 1.18 1.81-0.59-1.22 1.81 3.91 1.19 3-3.59h-8.41zm207.89 0.9l0.9 0.88h1.2l2.4 1.5 3.6 1.5 3 0.62 3.6 1.5 12 6.28-3-2.09-0.9-1.19-2.1-0.31-4.8-2.69-2.1-1.81 0.6-0.31-3-0.6-3-0.59-8.4-2.69zm-20.4 2.1l5.4 1.4-5.3-1.12-0.1-0.28zm0.1 0.47l0.5 1.93h-0.3l-0.2-1.93zm-171.09 0.12l-1.19 0.91h1.82l-2.41 0.59h1.5l-1.81 0.59h1.5l-2.1 0.91 1.5 0.31-1.5 0.88 1.82-0.28-2.1 0.9 2.1-0.62-3.6 1.5 0.6 0.62h0.9l0.28-0.31h2.41l0.59-1.19 2.41-0.31-1.19 1.19h-0.03l-0.87 0.9h2.68l-0.28 1.5 1.19-0.9 0.59 1.22 0.91-1.22v1.22l2.69-2.41-0.6 2.09 1.82-1.78 0.28 2.38 1.81-0.88-0.91 1.5 1.82 0.28 0.59-0.9v0.9l1.5-0.28-0.91 0.6 5.1 1.5-1.78-2.1 2.09 0.88 0.91-1.19-0.32 1.5 2.1 1.19h1.81l1.78-1.19-1.19-1.5 1.82 0.59 0.87-3.9-0.87-0.88-0.63-0.9-3.28 0.9 2.69-1.81-0.91-0.59-1.78 0.59 1.78-1.19-1.19-1.5-0.9 0.88-0.88-0.6v1.5l-1.5-1.18v2.09l-0.62-2.09-1.78 0.9 1.5 2.1-1.22-1.22-0.88-0.28 0.88 1.18-0.6 0.6-0.9-0.6v0.91l0.9 0.59 2.41 1.22-2.41-0.9-0.31 1.18-0.87-1.5-0.63-1.5-3.87 1.22 3.59-1.5 0.91-1.22-6.32 1.5v-0.59l-0.31 1.5-0.59-0.91-1.5 0.6 2.09-1.5-0.28-0.88-2.72-0.31 0.91 0.91h-1.5l2.09 0.59h-4.78l1.78 1.19-3-0.88 3.63-2.4-3.32 0.9-1.81-1.81zm-21.59 0.59l-2.41 2.72-0.59 1.5 3.31-1.22 3.28-0.28 3.91 0.6 1.22-1.22-1.82-1.78-6.9-0.32zm-57.28 0.32l-0.32 0.9 1.82-0.62-1.5 0.62v0.28l-0.32-0.28-0.28 0.28h-0.31l-0.28 0.32-2.13 1.18 1.22-0.9 2.1-1.78zm256.16 0.18l2.7 0.72 0.3 0.6-0.6-0.6-2.4-0.72zm-257.07 0.1l-0.59 0.9-1.19 0.6-0.91 0.62-4.22 1.5 3.91-1.5 0.59-0.31 1.5-1.5 0.91-0.31zm56.41 0l-2.72 0.9-1.78 0.91 0.59 1.19-2.41 0.62-0.31 0.28v0.6l-0.28 0.31-0.31 0.59v0.32l-0.28 0.59v0.31l-0.32 0.6v0.28l-0.31 0.31 0.91-0.31-1.19 1.5v0.31l-0.31 0.31v0.6l1.81-0.91h1.19l-3.28 1.81-1.22 0.6 0.9 0.28h-1.5v0.9l-2.09 1.22-2.09-0.62 1.18 0.9-2.4 1.82 0.62 0.28-6 3.62-2.12-0.31-0.6 1.19 0.32-1.19-2.41-0.91-3 2.1-0.59-2.38 1.18-2.12-4.18 0.62-0.91 4.5 2.09-0.9-2.4 2.09 1.22-0.31-3.32 2.12-1.18 2.1-0.6-0.91-1.5 1.19-4.5 9.31 7.19-7.19-1.5 2.38 1.5-1.19-4.19 6 4.78-2.69-2.09 2.1 3-1.82 1.19-1.78 0.62 0.6 1.78-1.5-1.18-0.32 1.78-1.18-1.5 0.28 4.22-2.1-1.22-0.59 2.72-1.19v1.19l2.4-1.81v1.5l-2.12 1.5 1.5 0.31-2.1 0.31 2.1 0.88-3-0.28-3.28 3.9 4.5-1.81-1.22 1.5 2.4-1.5-0.28 1.5 1.19-1.81v1.5l1.19-1.19 0.62 0.91 1.19-1.5h-1.81l1.5-0.6-0.88-0.9h0.28l1.5-0.32-1.18-0.9 1.18 0.31 0.32-1.19v1.19l2.09-1.5-0.91-0.59h-0.28l1.5-0.91-1.5 0.31 1.78-0.62h-1.18l1.5-0.6h-0.91l1.81-1.18-0.31-0.6 0.91 0.88 1.5-3.28v1.78l1.37-1.1 0.41 0.22 0.59-1.22-0.59 2.41 1.22-0.91v-2.68l0.87 2.4 1.22-0.31 0.28-0.31-0.28-0.28v-1.22l-1.5-0.6 1.5 0.32 0.91 0.28-0.63-1.19 2.13 1.19 1.18-1.5-1.5-0.6h1.82l-3.63-0.28 2.13-0.31-0.32-0.59 2.69 0.28-1.78-1.19 2.69 0.59 1.81-1.78-2.72-0.31 3.31-0.59-2.4-0.6 2.09-0.31v-0.59l1.81 0.59-0.59-1.5 2.41 0.31 1.78-2.12-1.5-0.6-1.5 1.5 0.9-1.5-2.4 1.22 3.59-2.12-0.28-0.28-2.09-0.32h3.59l4.78-1.78-0.59-2.4-2.1 1.18 0.91-1.5-1.81 1.5 1.22-1.5-4.5 1.82 1.5-1.22-0.63-0.6-2.37 1.5-2.72 0.32 1.22-0.32 1.5-3.9zm193.46 0.62h0.4l2.3 4.19 0.9 0.06-2.7 2.63 0.6 0.34-2.4 1.16-9.6-0.6-11.4-4.18 10.5 3.59 9.6 0.91 4.2-3-2.4-5.1zm30 1.19h0.6 0.6l1.8 1-0.3-0.09-0.6-0.32-0.9-0.28-0.6-0.31-0.2 0.31-0.4-0.31zm3 0.31l1.5 1.5 2.1 1.5 4.5 3.6 1.2 0.59 0.3 0.31 0.8 0.57-1.4-0.57-8.4-6.62-0.5-0.16-0.7-0.44 1.2 0.6-0.6-0.88zm-29.1 2.78l3 0.22 5.1 2.69 5.7 6.59 1.2 3.91 0.9 0.91h1.6l-0.8 0.78-2-1.69-0.9-3.91-8.3-7.78-5.5-1.72zm42.6 0.5l2.1 1.82 1.5 1.18-0.6 0.91 7.2 4.5 1.8 1.81 0.6 0.28 1.8 1.5 0.6 0.32-1.2-0.91v-0.59l-2.4-1.82-1.2-1.5-3.9-2.68-4.8-3.91-1.5-0.91zm15 12.32l0.6 0.59 0.6 0.31 0.6 0.6 0.6 0.28-2.7-2.69 0.3 0.91zm-21.9-12l0.3 0.59-0.3-0.59zm-37.7 2.37l2 1.22-0.3 1.5v-1.5l-1.7-1.22zm-168.05 0.31l-3.31 2.72 0.59 1.5-1.5 0.6v-1.82l-0.59 1.82-0.32-3-1.78 2.4-1.22-0.9-1.5 1.18-0.87 1.5 1.5-0.9-0.91 1.5 1.78 0.9-0.59 1.82-1.19 0.9-4.81 4.78h-2.09l0.9 0.6-5.09 2.4-2.13 2.1-0.59-1.19v0.91l-1.59 0.47-1.69-0.19-0.31 2.12 3.9-1.5-2.4 1.5 0.59 1.5-1.78-0.62 0.87 1.22-1.78-0.32 0.91 0.6-0.91-0.28v1.5l-0.31-0.91-2.41 2.69 0.91-3-1.19-1.5-1.81 3.31 1.22 2.09h-0.31l-3.6 0.91 0.28 1.19-1.18 0.31 0.59-1.19-2.41 1.78-0.03-0.28-1.75 0.28-0.59 1.5-0.31-3.59-0.32 1.81-0.28-1.22-2.72 0.6 3.32 1.22-1.19-0.32 1.5 1.82-3.91-2.72 0.91 2.72-2.13-2.1-0.28 2.38-1.5-0.88v1.31l2.69 0.47v1.22l-5.41-1.5 1.22 1.78-2.09-0.9-1.22 1.5 2.72 0.62v0.88l-3-1.19 0.59 0.59-2.4 0.91 1.5 0.59-1.82-0.28-2.09 1.5h3.31l1.5-1.5-2.4 3.6v-0.91l-2.1-0.91 0.91 1.82-1.5-1.5v1.18h-1.5l0.59 1.22-1.22-0.31 0.63 1.5-0.91-1.19 0.28 1.5-2.09 0.88h1.5l-2.41 0.9-0.28 1.82-1.5 0.28 1.19 0.62h-1.5l1.22 0.28-1.5 0.32 0.28 0.9-0.91-0.62 0.63 1.22-1.22-0.6 0.91 1.78-1.82 1.5 3.63 2.1h-2.72l1.81 0.31-2.09 0.59 1.5 0.32-1.5 1.18 1.78-0.28-2.69 0.88 2.41-0.28-2.41 1.5 1.78-0.6v2.1l0.91-2.72 1.22 1.81 0.28-1.81 1.81 0.31-0.59-1.19 0.87 1.19v-1.5l1.5 0.59-0.28-0.9 1.19 0.62-0.28-0.9h1.78l0.91-2.41 0.31 1.19 0.28-2.1 1.81 1.5 1.19-1.78v1.5l0.91-1.81 0.31 1.19 0.28-0.88 1.22 0.6v-1.5l0.59 1.5 1.5-1.5-0.59-1.22 1.5 0.9 2.37-3 0.32 1.22 2.4-1.22 1.78 1.5 3.32-2.09 0.31 1.19-2.13 0.62v0.88l1.22-1.19-0.59 0.91 2.37 0.59 0.91-1.19 0.91 1.5 6.31-2.72h2.09l2.1-2.4-0.91 2.4 1.81 1.22 1.19-0.9-0.28 1.18 5.09 0.91 8.69-1.81-3-1.5-0.59-0.6-1.82-0.9h-0.28l-0.31-0.6-0.59-0.9 3.59 0.31-3-1.81 3.59-1.19 0.63 1.5h2.37l-2.09-3 1.5 0.31v-1.5l1.81 4.5-1.5 3.28 2.41-0.59-1.22 1.19 1.22 0.62 0.59-2.4 2.1-0.91-1.19-0.59 1.78-0.32-1.78-0.28 1.5-0.62-0.63-2.69-1.78 0.31 1.19-0.62-1.19-0.6 2.1 0.6 0.31-1.19h-2.41l0.28-1.5 3 0.59-2.09-1.5 1.5 0.32v-1.22l0.31 1.5h2.1l0.59-2.1-0.28 2.1 1.19-0.6 1.18 1.5-1.5-1.18 0.32 2.09 2.68 0.59 1.22-1.18-0.59-1.5-1.5 1.18 0.59-1.5 2.1-1.5 0.9 2.1 0.91-0.88-0.63-0.9 1.5-0.91-1.18-1.19 1.5 0.88-0.6-2.1 1.19 2.41 1.81-1.81-1.22-1.5 2.13 0.31h0.28l-1.5-0.91 0.91-1.78 2.4 0.88 0.28-0.6 0.63-0.28 0.59-0.62 0.28-0.6-0.59-0.59h1.22l0.59-0.59v-0.6l-1.81 0.6 1.5-1.5 3.59-1.5 1.82-1.82 0.9-0.59h-0.59l0.87-0.91h0.63l0.59-0.28 0.28-0.62 0.32-0.28-0.6-0.32 0.91 0.32 1.19-1.22 0.9-0.6 0.6-0.59-0.32-0.59-5.37 1.78 5.69-3.6-4.5 0.32 3-0.91-4.19-2.09 2.09-0.32 2.69 2.1 3.31-0.28-1.81-1.5 1.81-0.6-5.72-2.12 2.41-0.28 3.59 1.78-3.28-3.6-3.31 1.22 0.91-2.12h-1.82l0.32 1.81-1.19 0.91v-2.72l-1.5 2.12-0.31-0.9-2.1 0.9 1.78-3.31-3.87 1.81 1.19-1.81h-2.1l3.28-1.19-2.09-1.22-2.69 1.82 2.1-1.5-0.32-0.32-0.28-0.59-3.59 0.91 0.59-0.91-2.09 0.59 1.78-0.9-3.91-0.88-1.18 0.6 0.59 1.18h-5.09l-0.32-1.5-3.87-1.5zm-47.41 34.03l-0.09-0.03 0.09 0.22v-0.19zm-0.09-0.03l-0.5-1-0.56 0.82 1.06 0.18zm-1.06-0.18l-1.25-0.22 1.18 0.31 0.07-0.09zm258.81-31.72l0.2 0.28 1.3 0.94h-0.2l-1-0.72-0.1-0.22-0.2-0.28zm-104.66 1.81l1.5 1.19-2.72-0.6 6.28 2.72-1.8-3.31h-3.26zm-7.53 1.19l-3.28 0.31 3.59 3.31 1.82-0.62-0.32-2.1-1.81-0.9zm116.49 0.09l0.8 0.53 6 5.69 1.9 1.56 1.1 2.03-1.5-2.09-8.3-7.72zm-112.27 0.22l-1.5 0.31 0.91 0.6-1.5-0.32 1.78 3 3.31-0.59 0.91-2.09-0.63-0.32h-0.87l-1.82-0.59h-0.59zm23.37 2.09l1.2 2.72 1.2 0.88-1.5 0.9 2.7 0.6-1.7-0.28-0.4 0.28-0.9 0.31-0.3-0.59v-0.6l-1.9-0.22-0.2-0.09h-0.6l2.7-0.31-0.3-2.38-1.5-0.31 1.5-0.91zm-25.18 0.6l-1.19 1.22 1.78 0.28 0.31-0.88-0.9-0.62zm34.18 2.72h0.3l3 3.59h2.1l-1.8 0.31 1.3 2.38-0.4-0.28-4.5-6zm52.6 1.21l2.9 3.29-2.6 0.9 2.3-0.9-2.6-3.29zm36.1 1.07l1.9 1.62 3 3.6-4.9-5.22zm-332.85 1.9l0.28 0.32h0.59l-1.18 1.18h-0.32l-1.5 0.6 2.13-2.1zm-6.63 0.32l2.1 2.09h0.03l-0.63 0.91 1.13-0.57-1.13 0.85h0.32l1.18-0.6-2.37 3.6h-0.03l-2.97 2.4-1.22 2.1-5.09 3.62-4.5 8.1-3 3.28-0.32 0.31-0.87 0.91-0.91 0.28h-0.03l0.91-2.1 2.72-3-2.41 2.41-3.91 2.09-0.59-0.59 3.59-3v-1.5l1.5-0.31 3-2.38 3-3.9-3 1.18 1.5-1.18h-0.9l-5.41 3.59-2.97 1.81h-0.03v-0.9h0.03l5.38-4.5 4.22-2.41 0.59-0.91 2.69-0.9h0.03l-1.22 1.5 0.59 0.9-1.74 3.25 1.74-1.75 0.91-1.18 0.91-0.6 1.18-3.9 1.82-1.5v-0.91l1.78-1.19-0.28-2.12 0.87-0.88 0.91-0.62 0.9-1.78zm200.1 3.28l-1.19 0.62 0.59 0.28 0.32 0.32 0.28 0.59v-1.81zm0 2.12l-1.78 0.28 1.5 0.91 0.28-1.19zm-6.91 0.28l-0.87 3.32 1.78-2.1-0.91-1.22zm-22.19 5.1v1.22h-1.5l0.6 1.5h1.22l1.5-0.32-1.5 1.22 3.28 0.88 2.4-2.69-1.81-1.19-1.5 0.88-0.28-1.5-0.31 1.81-1.78-1.5-0.32-0.31zm45.91 0.31l-0.59 3.31-3 1.78v1.22l-1.5 4.5 2.37 1.19-0.59 2.09h1.81l-1.81 0.32-0.6 1.78 2.69-0.6-0.87 1.82 3-0.91-1.82-1.5h1.82l-1.82-0.59h1.5l-1.5-1.22 1.5 0.31-1.81-1.81h1.5l-0.28-1.5-0.31-2.38 2.72-5.72-2.41-2.09zm-48.59 1.19v3.9l-1.5-3-0.63 1.82-1.5-1.22 1.5-0.88-2.69 0.88 1.19 4.81 2.41-2.09v1.18l0.9-0.9 0.91 1.22-3.91 0.9 0.32 1.19 3-0.59-2.41 0.9 1.5 0.88-2.41-0.28 1.5 1.78 1.5 1.5 2.41-6.28 0.91-0.6 1.5-0.62-1.5-1.5-1.5-1.5-0.63 0.9-0.87-2.4zm-92.69 1.5l2.31 2.09-0.22-1.47-2.09-0.62zm171.85 1.22l6.6 3.9 0.9 0.88-1.5-0.28h-0.8l-3-2.41 1.1 1.81-3.8-3.87 0.5-0.03zm9.3 0.28l2.4 1.22-2.1-0.32-0.3-0.9zm85.9 0l1.1 0.62-1.1-0.59v-0.03zm1.4 0.9l1.2 0.6v0.03l-1.2-0.63zm-171.26 1.22l-1.5 0.28 0.87 0.91 0.63-1.19zm1.18 1.19l-1.81 0.31v2.38l1.5-0.6 0.31 1.5 1.19-1.5-1.19-2.09zm-173.68 0.31l-1.19 0.88-0.31 0.31-0.32-0.59 0.91-0.32 0.91-0.28zm-12.6 3.28v0.91 0.59l-0.9 0.91 0.59-1.19 0.31-1.22zm-9.9 4.22l-1.19 1.19v-0.75l1.19-0.44zm-1.44 0.53l-0.66 0.66 0.6 1.19-0.91 3 0.59-0.88v0.6l0.32 1.5-1.19 0.9-0.63-0.9-1.18-1.82 2.09-3.9 0.97-0.35zm241.44 0.97l-2.1 0.6-1.5 0.9 1.19 0.88-1.19 1.22 1.78-0.6-0.9 3.88 1.5 1.22 1.81-1.22 2.69 2.4 4.48-1.78-5.98-2.72-1.78-2.09v-2.69zm-217.5 4.5l-2.41 2.1-1.19 0.9 1.19-1.22 0.59-0.9 1.82-0.88zm227.66 3.28l0.9 1.5h0.3l2.4 0.32-0.6-0.6-0.3-0.62h-0.3l-2.4-0.6zm23.4 4.5v1.82l-2.4 0.9 0.7 2.1 2.3 4.18 4.8 3.6 1.5 3.62 10.2 2.38 8.4-5.69 6.9-2.09 0.9 0.28-6 1.5-8.4 6.31 2.1 0.59 2.7 3-2.7-2.68-14.4-3.6-1.8-3.9-4.2-3.32-2.7-3.9-0.3-2.38 2.4-2.72zm-153.88 6l-0.9 2.72-0.28-2.12-1.22 1.81-0.88-0.91-0.31 0.91-1.19-0.31 3.88 2.4-2.1 0.32 0.91 0.9-3.91-1.22 2.72 3.91-3.62 0.91 2.72 0.9 1.18 1.78 1.19 2.1 3.91-0.28h4.5l3.59-1.82-0.59-0.59 1.5 0.31-0.28-5.12 1.78-0.6-2.1 0.32-0.31-1.82-1.5 1.5-2.37-1.5-1.22 1.82 0.31-2.41-2.09 1.19-0.32-1.19-0.31-0.59-3.28 2.68 1.78-3.28-1.19-2.72zm141.58 0.6l0.6 0.31-0.6-0.28v-0.03zm1.2 1.5l0.6 0.31-0.6-0.28v-0.03zm1.2 1.5l0.6 0.31-0.6-0.28v-0.03zm43.5 1.59l4.2 1.41 1.2-0.28 2.4-0.6 7.9 0.88 3 0.9-5.2-0.9-7.5 0.31h-1.8l-4.2-1.72zm-39 4.13l0.7 0.28v0.03l-0.7-0.31zm1.2 1.5l0.6 0.28v0.03l-0.6-0.31zm87.6 3.59l1.9 0.59 0.2 2.1-1.8-0.6-0.3-2.09zm63 1.19l0.9 0.62 0.6 1.5-0.3-0.31-0.6-0.59v-0.03l-0.6-1.19zm-196.78 9.9l2.69 1.5h-1.5l0.63 2.41-1.82-3.91zm-1.18 1.82l1.18 1.18h-1.5l0.32-1.18zm-14.1 0.9l5.1 4.78-2.41-1.5 0.28 2.1 3 0.31-0.28-1.81 1.5 0.62v2.38l-3 2.4 1.5 0.32-2.41 0.59-1.5-2.09 1.82 0.59 1.78-1.5-3.91-2.41 0.63-1.78-2.1-3zm217.86 1.07l0.8 1.34 1.3 1.78v-0.91l0.8 1.5h-0.8l-1.3-2.37-0.3 0.59-0.9 1.19-0.3-1.19h0.9l0.3-0.31-0.3-0.59v-0.6l-0.2-0.43zm-201.08 0.43l3 1.19 2.69 5.09-0.87 1.5-2.41-0.28 1.5-0.9-3.59-2.41-1.5-2.69 2.09 1.78-1.22-2.4 2.13 2.12 0.87-0.9-2.69-2.1zm-18.59 0.88l0.59 2.72 0.32-1.82 1.15 0.91-2.06 3v2.69l1.78-0.6-0.59 2.1-2.1-2.1 1.19-3.59-0.28-2.41-1.22-0.59 1.22-0.31zm1.19 0.31l1.5 0.59-0.6 0.88-0.9-1.47zm225.28 0.91l4.5 9 0.9 2.09 1.5 1.5-6.6-12.59h-0.3zm-230.97 2.68h2.41v1.22l-2.13 0.6v1.78l2.13-1.78-1.47 2.34 1.15 0.94-1.18-0.88 0.03-0.06-0.66-0.56v0.62l-0.28-4.22zm16.19 0.91l5.4 3.91-3 3.59-4.5-5.09 2.1-2.41zm-53.97 0.59l1.19 1.22 0.9-1.22v0.91l-1.81 1.5-0.59-1.5h-0.32l0.63-0.91zm-29.72 6.32l-1.5 3.28-1.78-0.6-0.31 3.32-2.41 1.18 2.72 0.6-4.22 5.4 2.09-1.78 1.82-1.22 0.31 1.5-0.91-0.28-2.4 4.19 0.31 1.19 0.28-0.88 4.81 0.6-2.4 1.78 0.59 2.12 1.22-0.62-1.81 2.72 0.9 1.18-4.22-0.28-2.09 1.5 2.09-0.31-0.28 1.81-4.81 2.1 4.5 3.28 3.31-1.19-2.72 2.41-3.28-0.91-5.72 3.91 6 0.9 1.22-2.12 9.6 1.81 4.5-0.91 0.28-0.9-3-0.88 1.81-0.31 3.28-3.31-0.59-2.38-3.28-0.62h-0.32l0.91-2.69-0.28-0.59-1.5-0.6 2.09 0.28 0.28-1.78-2.37-2.72-0.31-6-3.91-2.09 3.31 0.31-1.81-0.9 2.41-0.32 3.31-4.18-6.31-0.91 5.09-3.91-4.5-1.18zm271.47 0.9l2.1 1.19-1.2 0.91-0.6 0.28-0.3-1.19v-1.19zm-457.16 0.88l-0.59 0.62-0.31 0.88-0.32 0.62-0.59 0.88-1.19 3.9-1.81 4.5-0.59 2.72-0.6 1.19-0.59 0.31-1.22 6.88 0.31 0.9 1.19-5.4 0.91-1.5 0.9-3.88 4.5-12.62zm228.6 2.12l2.37 0.28-0.87 2.72-3.91 1.19 0.59-2.41 1.82 0.32v-2.1zm180.56 1.19l2.4 1.81h-2.1l-0.3-1.81zm-158.06 0.91l-0.91 0.28 0.91 0.9 1.5-0.59-1.5-0.59zm-1.5 2.09l0.59 2.41v0.28l3-2.69h-3.59zm154.76 0.31l-0.3 2.69-6.3 3.31-0.6 4.5 2.7 4.19-3.6-2.09-0.3-3.6 0.6-3 6.9-3.62 0.9-2.38zm-161.67 2.38l-2.41 1.5 0.32 2.4 2.09-3.9zm-69.91 1.22l-3 1.78 1.82 0.62-1.82 1.5-3.87-1.22h-0.03l0.59 2.1-2.37 1.22 3 1.78-3.91 2.12 3.28 0.6-5.06 0.28 1.47 0.9-2.1 0.6 2.1 0.62-2.1 0.6 2.1 0.28-1.47 0.9 5.37-0.28 5.1-0.31h0.03l2.69-7.81 3-1.19-0.32-3.59h-3.28l1.47-0.6-0.87-0.9-1.5 1.5-0.32-1.5zm44.41 0.9l2.09 0.28-1.81 0.6 0.31 1.5-0.59-1.19-1.5 0.91 1.5-2.1zm7.78 5.1l-0.87 1.78-0.63-1.5-2.37 0.9 2.09 5.72v-2.12l2.41-2.38-0.63-2.4zm-6.28 1.78l-0.59 1.81 2.09 0.59v-2.4h-1.5zm29.31 0.87l0.41 3.35h-1.81l1.4-3.35zm-20.03 4.53l-1.5 0.6 1.5 0.62v-1.22zm92.69 1.82l-1.8 3 0.6 2.59-0.9-2.31 2.1-3.28zm-329.38 2.09l-0.59 2.69-0.59 1.22-0.91 3 0.91-5.41-0.32 0.31-0.87 3v3.88l-1.22 3.9 0.59-0.59 0.63-0.31-0.31 6 0.59-0.6 0.59-5.09 0.63 0.59v-1.5l0.59-2.09 0.6-8.41-0.32-0.59zm328.28 3.62l2.3 2.07-1.8 1.22v0.28 0.03l-0.6 7.19 0.3-7.19v-0.03l0.3-2.1-0.5-1.47zm48.5 0.88l-0.3 3.91 0.9 1.78 3.9 1.22-0.6 1.78-0.3 3.9 1.8 1.5-2.4 2.1v0.03l-0.6 0.28-1.5-1.19-3 1.5-2.7-4.5-0.6-4.81 2.1-0.91-1.2-1.78 1.5 0.28v-0.87-0.03l-0.3-2.1h2.4l0.9-2.09zm130.8 0.91v4.78l0.9 3.9 1.5 2.1 0.3-0.6-0.6-4.18-1.5-5.1-0.6-0.9zm-189.6 4.5l-0.6 0.31h-0.6l-0.9 0.28 0.9-0.31h0.6l0.6-0.28zm36 3.9l1.2 0.88 0.9 5.4 1.8 0.32-5.4 1.78-0.3 2.72 2.4 0.9-3.9 0.6 0.3 1.5h2.1l3 4.18 5.1 0.32v3l3 4.18-1.2-4.18 1.8-1.5 5.1 3.59-2.1 3-3.3-1.19 0.6 3.88 1.8 2.12-0.9-1.22 2.1-0.59 1.5 1.81h-1.8l0.6 2.1 0.9-1.22 1.8 1.5 3.6 9.31-6.3 3.59-10.2-1.5-3-5.4 0.9-2.69-0.6-3.91 2.4-1.78-3.3-0.31-8.4-7.19-1.8-5.4-0.3 1.78-3.9-4.19 0.3-5.69 3.9-1.5 0.3-3.9 4.2-4.22 5.1-0.88zm-362.66 5.69l-0.32 0.59v0.82l0.32-1.1v-0.31zm-0.32 1.41l-0.06 0.21 0.06-0.12v-0.09zm-0.06 0.21l-0.22 0.47v0.32l0.22-0.79zm-0.22 0.79l-0.09 0.5 0.09-0.19v-0.31zm-0.09 0.5l-0.22 0.4v0.6l0.22-1zm-0.81 4.9l-0.32 0.6-0.28 0.59v0.59l-0.59 2.13v-0.31l-0.31 3 0.31-1.57v0.28l-2.41 12.97-0.31 2.41v0.91l-0.28 1.78 0.28-1.19-0.28 2.69v0.62l-0.22 0.19-0.09 0.09v2.1l-0.32 0.62v2.69l-0.28 0.59v3.32l-0.31 0.59v0.91 1.5l-0.28 2.09v5.69l-0.31 0.31v13.19 0.62 0.28 1.82 0.28l0.06 0.5 0.53 8.22v0.28 0.62l0.59 5.1 0.63 7.18 0.87 5.41 0.32 0.59 0.31 2.1 0.59 1.5v-1.19l-0.9-8.69-0.22-1.69 0.22 1.38 1.5 11.09 0.31 0.91 1.19 3.31 0.59-0.62 0.91 3 0.59-0.6 0.53 1.22-1.12-0.31-0.91-3-0.91 0.59-0.87-3.59-0.31-0.31-1.19-2.38-0.31-2.72-0.6-0.28v-1.22l-0.59-3.9v2.4l0.28 0.91v1.5l0.31 0.59v1.5l0.28 0.91v1.5l0.32 0.91v0.59l0.31 0.91v1.5l0.28 0.59v0.91l0.31 0.59v0.91l0.28 0.9v1.5l0.32 0.6v0.9l0.31 0.6v0.9l0.28 0.6v0.9l0.31 0.88v0.62l0.28 0.88v0.62l0.32 0.88 0.31 0.62v0.88l0.28 0.62v0.88l0.31 0.9 0.28 0.6v0.9l0.32 0.6 0.31 0.9v0.32 0.28l0.28 0.9 0.31 0.6v0.03 0.87l0.28 0.63v0.59l0.32 0.6v0.9l0.31 0.6v0.59l0.28 0.59v0.32l0.31 0.59v0.59l0.28 0.6v0.62l0.32 0.28v0.6l0.31 0.62v0.6l0.28 0.28v0.62l0.31 0.6v0.59l0.28 0.31v0.6l0.32 0.59v0.59l0.31 0.32 0.28 0.59v0.59l0.31 0.6v0.31l0.28 0.59v0.6l0.32 0.62v0.28l0.59 1.22v0.6l0.31 0.28v0.62l0.6 1.19v0.31l0.31 0.6v0.59l0.28 0.59 0.31 0.32v0.59l0.6 1.19v0.31l0.31 0.59v0.6l0.28 0.31 0.31 0.59v0.6l0.28 0.62 0.32 0.28v0.6l0.59 1.22v0.28l0.59 1.22v0.28l0.91 1.81v0.31l0.59 1.19v0.31l0.63 1.19v0.59l0.28 0.32 0.59 1.18v0.32l0.63 1.18 0.28 0.32v0.59l0.59 1.19 0.32 0.31v0.59l0.31 0.6 0.28 0.31 0.59 1.19v0.31l0.63 1.19 0.28 0.31 0.31 0.59v0.6l0.28 0.62 0.32 0.28 0.59 1.22v0.28l0.59 1.22 0.32 0.28 0.59 1.22v0.28l0.59 1.22 0.32 0.28 0.59 1.22 0.31 0.28v0.6l0.28 0.62 0.32 0.28 0.59 1.22 0.31 0.28 0.6 1.22 0.31 0.28v0.29l0.94 1.65-0.94-1.53v0.19l0.28 0.62 0.31 0.28 0.28 0.6 0.32 0.31 0.59 1.19 0.19 0.19 0.4 0.71 0.57 0.85-0.25-0.25 0.31 0.65v-0.31l0.59 0.88 1.5 3 0.6 0.59 1.18 2.41 0.63 0.59 0.87 1.81 0.63 0.6 0.28 0.59 0.03 0.03 0.03 0.06 1.16 1.41-0.63-0.91 0.63 0.6 1.5 1.81 0.28-0.31 2.09 2.4h0.32l0.31 0.91 2.09 2.41-0.59-1.22 1.19 0.62-0.91-1.81v-2.69-0.31l-1.19-3.59 0.28-0.91-4.5-15.31 0.32-0.6 0.9 1.82h0.6l2.68-4.82 2.13-3.28-0.31-3.9-1.82-6.91-1.18-2.41-3.91-3.9-3.91-7.78-3.59-6.91h-0.28l-5.13-5.41-2.37-4.78-2.72 0.28v-2.4l0.59-0.28-1.18-0.91 0.9-0.31-0.59-3.28-0.91 0.59-0.31-2.09h-0.28l0.28-0.6h-0.59l-0.6-2.12-0.31 0.31v-1.5l-0.28 0.31-1.81-4.22-0.32 0.6-1.18-2.38-0.6 1.78 0.6 1.5-0.6-0.28-0.31-1.81-1.19 1.5 0.28-1.81-2.09-2.1 2.72 2.1 0.59-3-3.31-6-0.59 2.4v-1.78l-0.6 0.6v-2.1l-0.59 0.88 0.28-2.38 2.41-1.22-0.32-0.9 0.32-1.19-1.19-3.91-0.31-9.59-0.32-1.19-0.28 1.19-0.59-5.09-2.13-8.72-3.59-7.78-0.59-7.19-0.6 0.87 0.6-3v-3.87l-0.6-4.81v-1.22l-0.59-1.5 0.59-3v-3.88l-0.59-1.81v-1.19l0.28-2.4 0.91 1.5-1.5-6.32v2.41l-0.91-2.09v-0.32-5.09l-0.28-4.81 0.28-3.28 0.31-4.22 0.13-0.85-0.13 0.57v-1.5l-0.56-1.13 0.84-3.97 0.32 0.6 0.59-3h-0.91l0.32-2.72-0.32 0.9 0.32-1.78zm-0.47 12.03l0.15-0.65v-0.35l-0.15 1zm0.15-1l0.32-2.03-0.32 1.5v0.53zm36.97 189.75l0.53 1.1 0.32 0.31-0.85-1.41zm0.85 1.41l0.44 0.59-0.13-0.28-0.31-0.31zm0.44 0.59l0.46 0.91 0.6 0.59-0.6-0.9-0.46-0.6zm1.06 1.5l0.59 1.22 0.44 0.44-1.03-1.66zm1.03 1.66l0.47 0.75-0.32-0.59-0.15-0.16zm0.47 0.75l0.31 0.59 0.44 0.44-0.75-1.03zm0.75 1.03l0.25 0.35-0.1-0.19-0.15-0.16zm0.25 0.35l0.5 1.03 0.59 0.59 0.31 0.59v-0.28l-1.4-1.93zm1.4 2.21l0.28 0.6 0.63 0.62-0.91-1.22zm-15.59-25.09v-0.12l-0.31-0.57-0.32-0.31 0.63 1zm-31.5-100.31l-0.31-2.1-0.03-0.09 0.03 0.41v1.18l0.31 0.6zm-0.34-2.19l-0.29-3.81-0.28-3v3l0.28 0.62v2.38l0.29 0.81zm-0.57-6.81l-0.31-3.6v0.32 0.59l-0.25-2.56-0.03-0.13 0.28 3v1.5l0.31 0.88zm-0.56-5.25l0.13 0.37 0.12 1.28-0.09-1.25-0.03-0.15-0.16-1.88v0.28l0.13 1.5-0.13-0.59 0.03 0.44zm4.16 24.15l-0.6-2.4v0.31l0.6 2.09zm-2.91-69.09l0.22-1.41v-0.28l-0.22 1.69zm3.5-22.06v0.15l-0.12 0.66v0.03l-0.03 0.06-0.04 0.04 0.19-0.94zm-0.34 6.75l-0.57 3.72-0.28 1.5-0.31 1.18v-0.59l0.59-3.91v-0.59l0.57-1.31zm228.93 9.72l-3.31 2.68 0.91 4.5 2.4-2.68v-4.5zm-1.5 8.09l-3.9 1.19-0.28 9.31 4.5-0.91 1.18-5.68-1.5-3.91zm-21.9 3.31l-3.28 0.88 1.78 1.81 2.09-1.5-0.59-1.19zm71.72 9.28l-1.5 0.6 5.68 3.9-0.9-3-3.28-1.5zm-28.22 3.32l-11.69 0.59 0.59 2.09 8.41 4.5 2.69-7.18zm71.38 8.4l-8.07 3.88 3 2.12 3.87-2.4-0.9-1.22 2.1-2.38zm-41.38 4.19v1.81l4.5 0.88 5.4-0.28 0.6-1.5-2.1 1.18-8.4-2.09zm248.68 12.59l-2.7 4.82 0.9 3h1.8l1.2 3 0.9-0.6 0.6 4.5 0.6 0.88 0.3 0.31 0.6 5.41 0.6 1.5v0.59l0.3-1.5v-0.59l0.3-1.82v0.32l0.9-10.82 0.3-1.78-0.3 1.5-0.3 1.78 0.3-2.4-0.3 0.62 0.3-3.31-0.6 1.81 0.3-5.12h-0.3l-0.3 3.31v-2.69l-0.3 1.19-1.2-2.09v2.09l-0.9-1.5-0.3-0.31-1.5 0.62v-1.5l-1.2-1.22zm-31.5 26.41l-0.6 0.59v0.32h1.2l-0.9 0.28v1.5l0.6 5.4-0.6-0.59 1.2 3.31v0.28l0.3 0.6 0.9 3.31 2.4-3.31 0.9-4.78-2.1-4.5-3.3-2.41zm-492.21 6.53l0.84 1.88 0.31 1.5v0.71l-0.31-0.71-0.28 3.28v-4.16l-0.63-1.53 0.63 1.19-0.56-2.16zm1.37 4.59l0.38 0.57 0.59 0.31h-0.59l-0.38-0.88zm187.56 54.88l2.72 2.41-0.9 3.9-0.32 0.6-0.28-0.6-0.59-1.81 1.78-1.81-2.41-2.69zm163.18 2.41l-0.5 0.31h-1.3l-0.6 0.28 0.6-0.31h1.3l0.5-0.28zm-186.86 2.68l4.5 6.32 0.31 0.28 0.87-4.78-1.18 11.68v-1.5l-0.32-0.28-3-2.12 3 1.81v-1.5l0.32-0.59v-1.5l-1.19-0.32h1.19l-3-0.59 2.68-0.31-3-2.1-0.59-2.4-3.28-0.6 3 0.32-0.31-1.82zm-137.69 23.79v0.21l0.28 0.32-0.28-0.53zm225.28 13.71l-2.09 11.1 3.31-5.69 7.19-3 0.9-0.59 9.94-0.57-10.84 2.07-3.32 0.59-4.18 2.41 0.31 3.28-10.5 7.81-0.31 3.31-0.32-3.31 7.5-6.31 2.41-11.1zm20.09 1.22l9.91 5.38-10.44-5.35 0.53-0.03zm117.58 30.28l-2.7 2.41v2.69l-2.4 2.12h-1.5l0.3 1.78-1.2 0.32-1.4 2.87 0.2-1.09-2.1 1.81 0.6 0.91-1.5 0.59 0.6-1.19-2.1 1.5-0.3 1.5-1.2-0.62-7.2 3.62-3 4.19 0.9 6.31-5.1 4.78-1.8 2.72 1.2 6h3.3l8.7-3.62 14.4-20.69 0.9-2.69 1.8-1.81v-3.59l0.9-0.6 0.9 1.19 1.5-2.09-0.9-6.6-2.4-1.5 0.7-1.22h-0.1zm-64.8 7.22l2.1 1.5 1.8 4.5-1.5 3 1.8 5.69-3-0.31-1.8-5.38 1.5-2.12-1.2-5.1-0.3-0.9h0.3l0.3-0.88z" fill-rule="evenodd" transform="matrix(.8 0 0 -.8 -469.94 792)" fill="url(#radialGradient12103)"/></g><path id="path4571" stroke-linejoin="round" d="m158.39 145.58a44.901 44.901 0 1 1 -89.801 0 44.901 44.901 0 1 1 89.801 0z" fill-rule="evenodd" transform="matrix(2.0089 0 0 -2.0077 604.95 565.79)" stroke="#b7b7b7" stroke-linecap="round" stroke-width=".33764" fill="url(#radialGradient4615)"/></g></svg>
